<?xml version="1.0" standalone="no"?><!DOCTYPE svg PUBLIC "-//W3C//DTD SVG 1.1//EN" "http://www.w3.org/Graphics/SVG/1.1/DTD/svg11.dtd"><svg t="1709266130222" class="icon" viewBox="0 0 1024 1024" version="1.1" xmlns="http://www.w3.org/2000/svg" p-id="4501" xmlns:xlink="http://www.w3.org/1999/xlink" width="200" height="200"><path d="M678.826667 0C545.706667 0 413.44 0 281.6 1.28c0 2.133333-2.56 2.133333-3.84 3.413333a448 448 0 0 0-156.16 109.653334c-35.84 37.12-64.853333 81.066667-87.893333 128-8.533333 16.213333-16.213333 33.706667-23.466667 51.2-0.853333 3.413333-2.133333 8.533333-5.546667 10.666666v265.386667c2.133333 3.413333 2.133333 8.533333 3.413334 12.8a369.493333 369.493333 0 0 0 145.92 206.08c1.28 1.28 2.133333 3.84 4.693333 2.56-1.28-1.28-1.28-2.56-2.56-3.413333-10.24-15.36-19.626667-29.44-28.586667-44.373334a388.266667 388.266667 0 0 1-54.613333-237.653333 430.506667 430.506667 0 0 1 72.96-193.28 984.32 984.32 0 0 1 155.306667-178.346667A556.8 556.8 0 0 1 440.32 41.813333 376.32 376.32 0 0 1 628.906667 8.533333c29.866667 2.56 59.306667 7.253333 88.32 11.52L725.333333 21.333333c3.413333 1.28 5.546667 1.28 8.96 1.28-16.213333-6.826667-32.426667-14.08-48.64-18.773333-2.133333-0.853333-4.266667-0.853333-6.826666-3.413333z m-70.826667 28.16c-18.346667 0.853333-35.84 2.133333-54.186667 5.546667-31.573333 5.973333-61.44 15.36-91.733333 24.746666a318.72 318.72 0 0 0-61.44 26.453334c-0.853333 0-3.413333 0-3.413333 2.56h2.133333a1199.786667 1199.786667 0 0 1 130.133333-14.08c21.76-1.28 45.226667 0 66.986667 3.413333 32.426667 4.693333 62.72 16.64 90.453333 32.853333a460.8 460.8 0 0 1 187.733334 200.533334 645.973333 645.973333 0 0 1 58.88 231.68c2.56 27.733333 2.56 57.173333 1.28 86.186666l-3.413334 48.64c-1.28 14.08-3.413333 28.16-5.973333 42.24a260.266667 260.266667 0 0 1-11.52 49.92 499.2 499.2 0 0 1-66.133333 116.48c-20.906667 28.16-44.8 53.76-68.266667 79.36-3.413333 3.413333-5.546667 5.546667-8.106667 9.386667 2.56 0 2.56-1.28 3.413334-1.28a714.24 714.24 0 0 0 98.56-68.693333 463.786667 463.786667 0 0 0 136.533333-189.866667l7.253333-17.493333h1.28v250.453333c0 0.853333 0-391.253333 0.853334-640 0 0.853333 0 2.133333-0.853334 2.986667l-1.28-3.84a458.666667 458.666667 0 0 0-64.853333-116.48 413.866667 413.866667 0 0 0-133.12-112.64A416.426667 416.426667 0 0 0 608 28.16z m410.88 279.04l0.426667-0.853333z m-554.666667-142.08c-17.066667-1.706667-34.133333 3.84-50.773333 17.92a99.413333 99.413333 0 0 0-26.453333 38.4c-14.08 34.133333-16.213333 67.413333-9.386667 102.4 4.693333 26.88 17.066667 50.346667 39.253333 67.413333 22.186667 18.773333 47.786667 21.333333 70.826667 8.533334 14.08-8.533333 24.32-18.773333 32.426667-32.853334 14.08-24.32 19.626667-51.2 19.626666-78.933333 0-12.8-0.853333-24.746667-3.413333-37.546667a119.466667 119.466667 0 0 0-26.453333-59.733333 72.106667 72.106667 0 0 0-46.08-25.6zM682.666667 219.733333a101.546667 101.546667 0 0 0-73.386667 35.413334c-12.8 11.52-19.626667 26.88-27.733333 41.813333a129.706667 129.706667 0 0 0-16.213334 65.28c0 16.213333 2.133333 31.573333 8.96 46.933333 11.946667 27.733333 34.133333 42.666667 61.44 42.666667 20.053333 0 36.266667-6.826667 51.2-18.346667a160 160 0 0 0 64-109.653333c2.133333-19.626667 0-39.68-7.253333-59.733333-6.826667-17.066667-17.066667-32-34.986667-39.253334a68.693333 68.693333 0 0 0-25.6-5.12zM272.213333 322.56c-18.773333 1.28-35.84 8.533333-47.36 25.6-15.36 21.333333-20.053333 45.653333-21.333333 69.973333-0.853333 25.6 5.12 49.066667 16.64 71.253334 9.386667 18.346667 21.76 34.986667 39.253333 46.933333 22.186667 14.506667 49.92 14.506667 69.546667 0.853333 11.52-8.533333 19.626667-20.053333 25.6-32.853333 11.52-26.88 13.653333-55.466667 6.826667-84.906667a140.8 140.8 0 0 0-45.226667-79.36c-12.8-10.24-26.453333-17.066667-43.946667-17.066666z m506.026667 112.64a78.506667 78.506667 0 0 0-38.4 8.533333 149.333333 149.333333 0 0 0-77.226667 84.053334 104.106667 104.106667 0 0 0-4.693333 67.413333c5.973333 21.333333 17.066667 36.266667 38.4 42.24 8.106667 2.133333 17.066667 3.413333 25.6 3.413333 13.653333 0 23.04-1.28 34.133333-7.253333 22.613333-10.24 39.68-25.6 54.613334-43.946667a123.733333 123.733333 0 0 0 26.88-104.96 55.466667 55.466667 0 0 0-46.506667-47.786666 79.786667 79.786667 0 0 0-12.8-1.706667z m-303.36 70.4c-3.413333 0-9.386667 0-14.933333 1.28a152.746667 152.746667 0 0 0-64 17.066667c-25.6 14.506667-46.933333 32.853333-66.986667 53.76a429.653333 429.653333 0 0 0-59.306667 78.08c-8.96 16.213333-14.933333 34.133333-13.653333 52.48 1.28 10.666667 1.28 20.053333 5.973333 29.013333 12.8 16.64 29.866667 28.16 50.773334 32.853333 19.626667 3.413333 39.253333 1.28 58.88-1.28 22.186667-2.133333 42.666667-4.266667 64-3.413333 33.28 2.133333 64 12.8 90.453333 33.706667 10.24 8.533333 19.626667 17.493333 31.146667 25.6 21.76 15.36 45.226667 22.186667 71.68 16.213333 22.186667-4.266667 37.12-18.346667 41.813333-40.533333 4.266667-18.773333 3.413333-36.266667 0.853333-55.04a403.626667 403.626667 0 0 0-15.786666-64 424.533333 424.533333 0 0 0-42.666667-96.426667c-12.8-21.333333-28.16-39.68-49.066667-53.76a157.013333 157.013333 0 0 0-89.173333-25.6zM4.693333 624.64v90.88c4.266667 5.546667 6.826667 12.8 9.386667 19.626667a546.133333 546.133333 0 0 0 102.826667 178.346666 409.6 409.6 0 0 0 163.413333 109.226667c1.28 0 2.133333 1.28 3.413333 1.28h341.76c1.28-1.28 1.28-1.28 2.133334-1.28a370.346667 370.346667 0 0 0 84.906666-38.4 486.4 486.4 0 0 0 181.76-204.8c18.346667-43.093333 27.733333-88.746667 29.866667-136.533333a17.066667 17.066667 0 0 0 0-10.24c-0.853333 0.853333-2.133333 2.133333-2.133333 3.413333l-9.386667 29.866667a353.706667 353.706667 0 0 1-79.786667 136.533333 344.746667 344.746667 0 0 1-121.6 81.493333c-40.533333 16.64-83.2 23.466667-127.573333 25.6-32.426667 1.28-63.573333 0-94.72-2.133333a1038.506667 1038.506667 0 0 1-132.266667-18.773333 660.48 660.48 0 0 1-160-58.026667 433.066667 433.066667 0 0 1-140.8-117.76 320 320 0 0 1-51.2-88.32z" p-id="4502"></path></svg>