<?xml version="1.0" standalone="no"?><!DOCTYPE svg PUBLIC "-//W3C//DTD SVG 1.1//EN" "http://www.w3.org/Graphics/SVG/1.1/DTD/svg11.dtd"><svg t="1718081275360" class="icon" viewBox="0 0 1024 1024" version="1.1" xmlns="http://www.w3.org/2000/svg" p-id="1114" xmlns:xlink="http://www.w3.org/1999/xlink" width="200" height="200"><path d="M511.466667 106.112C735.253333 106.112 917.333333 288.192 917.333333 511.978667c0 223.829333-182.08 405.909333-405.866666 405.909333-223.808 0-405.909333-182.08-405.909334-405.909333C105.536 288.213333 287.637333 106.112 511.466667 106.112m0-64c-259.541333 0-469.909333 210.368-469.909334 469.866667 0 259.584 210.368 469.909333 469.909334 469.909333C770.965333 981.888 981.333333 771.562667 981.333333 511.978667c0.042667-259.477333-210.368-469.866667-469.866666-469.866667z" p-id="1115"></path><path d="M309.056 739.968a32 32 0 0 1-29.418667-44.586667l117.76-274.837333a32 32 0 0 1 16.170667-16.533333l287.104-130.496a32.064 32.064 0 0 1 42.432 42.325333l-130.048 287.552a32.106667 32.106667 0 0 1-16.554667 16.234667l-274.837333 117.781333a32.64 32.64 0 0 1-12.608 2.56z m142.272-282.837333l-81.365333 189.909333 189.866666-81.365333 89.877334-198.698667-198.378667 90.154667z" p-id="1116"></path></svg>