<?xml version="1.0" standalone="no"?><!DOCTYPE svg PUBLIC "-//W3C//DTD SVG 1.1//EN" "http://www.w3.org/Graphics/SVG/1.1/DTD/svg11.dtd"><svg t="1718081287627" class="icon" viewBox="0 0 1024 1024" version="1.1" xmlns="http://www.w3.org/2000/svg" p-id="1431" xmlns:xlink="http://www.w3.org/1999/xlink" width="200" height="200"><path d="M854.72 30.08a47.68 47.68 0 0 0-67.84 0L422.4 394.56c-5.76 5.44-9.6 12.48-12.16 20.16l-59.52 198.72c-5.12 16.96-0.32 35.2 12.16 47.68 8.96 9.28 21.44 14.08 33.92 14.08 4.48 0 9.28-0.64 13.76-1.92l198.72-59.52c7.68-2.56 14.72-6.4 20.16-12.16L993.92 237.12a47.936 47.936 0 0 0 0-67.84L854.72 30.08z" p-id="1432"></path><path d="M960 464a48 48 0 0 0-48 48v320c0 44.128-35.904 80-80 80H192A80.096 80.096 0 0 1 112 832V192c0-44.128 35.904-80 80-80h320a48 48 0 0 0 0-96H192A176.224 176.224 0 0 0 16 192v640c0 97.024 78.944 176 176 176h640c97.056 0 176-78.976 176-176V512a48 48 0 0 0-48-48z" p-id="1433"></path></svg>