<svg xmlns="http://www.w3.org/2000/svg" xmlns:xlink="http://www.w3.org/1999/xlink" fill="none" version="1.1" width="200" height="200" viewBox="0 0 200 200"><defs><clipPath id="master_svg0_1_1"><rect x="0" y="0" width="200" height="200" rx="0"/></clipPath></defs><g clip-path="url(#master_svg0_1_1)"><g><path d="M177.83112509155274,41.70622865600586C157.06212509155273,16.05624865600586,119.43112509155273,12.099998656005859,93.77502509155273,32.87502865600586L74.09372509155273,48.81252865600586L83.92502509155274,60.95622865600586L103.60622509155273,45.01872865600586C122.55112509155273,29.66702865600586,150.35412509155273,32.58442865600586,165.69912509155273,51.53412865600586C181.04412509155273,70.48392865600586,178.11712509155274,98.28632865600586,159.16212509155272,113.62502865600585L138.07512509155274,130.70002865600586L147.90612509155272,142.84402865600586L168.99412509155275,125.76902865600586C194.65112509155273,104.99772865600586,198.60812509155272,67.35882865600587,177.83112509155274,41.70622865600586ZM100.85002509155274,160.85002865600586C81.90492509155274,176.19102865600587,54.110225091552735,173.27002865600585,38.76872509155274,154.32502865600586C23.427325091552735,135.38002865600586,26.348625091552734,107.58522865600585,45.29372509155273,92.24372865600586L66.96872509155273,74.69372865600586L57.13752509155273,62.55002865600586L35.462525091552735,80.10002865600586C9.812495091552734,100.86872865600586,5.856245091552735,138.50602865600587,26.625025091552736,164.15602865600587C47.39372509155273,189.80602865600585,85.03122509155274,193.76202865600587,110.68122509155273,172.99402865600587L131.21212509155274,156.36902865600587L121.38112509155273,144.22502865600586L100.85002509155274,160.85002865600586Z" fill="#FFFFFF" fill-opacity="1"/></g><g><path d="M132.06245762939454,69L142.06875762939453,81L74.96875762939453,136.9187L64.96875762939453,124.9187L132.06245762939454,69Z" fill="#FFFFFF" fill-opacity="1"/></g></g></svg>