<svg xmlns="http://www.w3.org/2000/svg" xmlns:xlink="http://www.w3.org/1999/xlink" fill="none" version="1.1" width="200.9765625" height="200" viewBox="0 0 200.9765625 200"><defs><clipPath id="master_svg0_1_00"><rect x="0" y="0" width="200.9765625" height="200" rx="0"/></clipPath></defs><g clip-path="url(#master_svg0_1_00)"><g><path d="M195.59094301223755,96.5999606338501Q199.79094301223756,100.5999606338501,199.99094301223755,105.3999606338501Q200.19094301223754,110.1999606338501,196.79094301223756,113.4003606338501Q192.99094301223755,116.8003606338501,187.99094301223755,116.6003606338501Q182.99094301223755,116.4003606338501,179.99094301223755,113.8003606338501Q178.99094301223755,113.0003606338501,173.89094301223756,108.1999606338501Q168.79094301223756,103.3999606338501,161.69094301223754,96.6999606338501Q154.59094301223755,89.9999606338501,146.49094301223755,82.29996063385009Q138.39094301223756,74.59996063385009,131.19094301223754,67.7999606338501Q123.99094301223755,60.9999606338501,118.79094301223755,55.9999606338501Q113.59094301223755,50.9999606338501,112.19094301223755,49.7999606338501Q105.79094301223755,43.999960633850094,99.59094301223755,44.1999606338501Q93.39044301223755,44.3999606338501,87.39044301223755,49.7999606338501Q85.39044301223755,51.599960633850095,79.89044301223755,56.6999606338501Q74.39044301223755,61.7999606338501,67.19044301223755,68.59996063385009Q59.99044301223755,75.3999606338501,51.99044301223755,82.79996063385009Q43.99044301223755,90.1999606338501,37.19044301223755,96.5999606338501Q30.390443012237547,102.9999606338501,25.49044301223755,107.4999606338501Q20.59044301223755,111.9999606338501,19.59044301223755,112.8003606338501Q16.59044301223755,115.2003606338501,11.590443012237548,115.4003606338501Q6.5904630122375485,115.6003606338501,2.990463012237549,112.3999606338501Q-1.0095329877624513,108.79996063385009,-0.8095328777624512,103.6999606338501Q-0.6095329877624511,98.5999606338501,2.590463012237549,95.5999606338501Q3.7904630122375487,94.3999606338501,9.990443012237549,88.5999606338501Q16.190443012237548,82.79996063385009,24.79044301223755,74.7999606338501Q33.39044301223755,66.7999606338501,43.290443012237546,57.599960633850095Q53.19044301223755,48.3999606338501,61.69044301223755,40.3999606338501Q70.19044301223755,32.3999606338501,76.29044301223755,26.699960633850097Q82.39044301223755,21.0000006338501,83.39044301223755,20.0000006338501Q90.99044301223755,12.600000633850097,99.79094301223755,12.500000003850097Q108.59094301223755,12.399999633850097,114.79094301223755,18.400000633850098Q115.99094301223755,19.400000633850098,119.79094301223755,23.099960633850095Q123.59094301223755,26.799960633850098,129.09094301223755,32.0999606338501Q134.59094301223755,37.3999606338501,141.39094301223756,43.999960633850094Q148.19094301223754,50.599960633850095,155.19094301223754,57.2999606338501Q162.19094301223754,63.9999606338501,168.89094301223756,70.59996063385009Q175.59094301223755,77.1999606338501,181.19094301223754,82.4999606338501Q186.79094301223756,87.79996063385009,190.59094301223755,91.5999606338501L195.59094301223755,96.5999606338501ZM87.39044301223755,67.59996063385009Q92.39044301223755,62.9999606338501,99.39094301223754,62.6999606338501Q106.39094301223754,62.3999606338501,111.99094301223755,67.59996063385009Q112.59094301223755,68.1999606338501,115.59094301223755,70.9999606338501L123.19094301223755,77.9999606338501Q127.59094301223755,82.1999606338501,133.09094301223755,87.3999606338501Q138.59094301223755,92.5999606338501,144.39094301223756,97.79996063385009Q157.79094301223756,110.1999606338501,174.39094301223756,125.6003606338501L174.39094301223756,163.6003606338501Q174.39094301223756,168.0003606338501,171.09094301223755,171.40036063385008Q167.79094301223756,174.8003606338501,162.19094301223754,175.0003606338501L124.39094301223754,175.0003606338501L124.39094301223754,144.0003606338501Q124.39094301223754,137.40036063385008,118.19094301223755,137.40036063385008L79.99044301223755,137.40036063385008Q76.59044301223754,137.40036063385008,75.29044301223755,139.40036063385008Q73.99044301223755,141.40036063385008,73.99044301223755,144.0003606338501Q73.99044301223755,145.2003606338501,73.89044301223755,150.1003606338501Q73.79044301223755,155.0003606338501,73.79044301223755,160.6003606338501L73.79044301223755,175.0003606338501L37.19044301223755,175.0003606338501Q31.390443012237547,175.0003606338501,27.99044301223755,172.40036063385008Q24.59044301223755,169.8003606338501,24.59044301223755,165.0003606338501L24.59044301223755,125.2003606338501Q40.99044301223755,110.2000606338501,54.39044301223755,98.0000606338501Q59.99044301223755,92.8000606338501,65.59044301223754,87.7000606338501Q71.19044301223755,82.5999606338501,75.79044301223755,78.3999606338501Q80.39044301223755,74.2000606338501,83.49044301223755,71.3000606338501Q86.59044301223754,68.3999606338501,87.39044301223755,67.59996063385009Z" fill="#FFFFFF" fill-opacity="1"/></g></g></svg>