<svg xmlns="http://www.w3.org/2000/svg" xmlns:xlink="http://www.w3.org/1999/xlink" fill="none" version="1.1" width="200" height="200" viewBox="0 0 200 200"><defs><clipPath id="master_svg0_1_6"><rect x="0" y="0" width="200" height="200" rx="0"/></clipPath></defs><g clip-path="url(#master_svg0_1_6)"><g><path d="M100.1563,2.65625C45.625,2.65625,1.5625,40.78125,1.5625,87.65625C1.5625,112.03125,13.4375,134.06225,32.6563,149.53125L100,199.68725L100,172.65625C154.3745,172.65625,198.5935,134.53125,198.5935,87.65625C198.5935,40.78125,154.5315,2.65625,100.1563,2.65625ZM149.2185,102.81225C142.0315,102.81225,136.2505,97.03125,136.2505,89.84375C136.2505,82.65625,142.0315,76.87505,149.2185,76.87505C156.4065,76.87505,162.1875,82.65625,162.1875,89.84375C162.0315,97.03125,156.2505,102.81225,149.2185,102.81225ZM100.1563,102.81225C92.9687,102.81225,87.1875,97.03125,87.1875,89.84375C87.1875,82.65625,92.9687,76.87505,100.1563,76.87505C107.3435,76.87505,113.1245,82.65625,113.1245,89.84375C112.9685,97.03125,107.1875,102.81225,100.1563,102.81225ZM51.25,102.81225C44.0625,102.81225,38.2813,97.03125,38.2813,89.84375C38.2813,82.65625,44.0625,76.87505,51.25,76.87505C58.4375,76.87505,64.2187,82.65625,64.2187,89.84375C64.2187,97.03125,58.4375,102.81225,51.25,102.81225Z" fill="#FFFFFF" fill-opacity="1"/></g></g></svg>