<?xml version="1.0" standalone="no"?><!DOCTYPE svg PUBLIC "-//W3C//DTD SVG 1.1//EN" "http://www.w3.org/Graphics/SVG/1.1/DTD/svg11.dtd"><svg t="1718083465639" class="icon" viewBox="0 0 1024 1024" version="1.1" xmlns="http://www.w3.org/2000/svg" p-id="1386" xmlns:xlink="http://www.w3.org/1999/xlink" width="200" height="200"><path d="M512.63382 0.000626a511.992489 511.992489 0 1 0 511.366581 511.992489A511.992489 511.992489 0 0 0 512.63382 0.000626z m0 938.861533A424.365413 424.365413 0 1 1 939.502863 511.993115 423.739505 423.739505 0 0 1 512.63382 938.862159z" p-id="1387"></path><path d="M727.320157 529.51853H550.814189V309.199024a56.331692 56.331692 0 0 0-112.663384 0v282.910275a50.072615 50.072615 0 0 0 50.072615 50.072615h239.096737a56.331692 56.331692 0 0 0 0-112.663384z" p-id="1388"></path></svg>